# xmcd
#
# Track frame offsets:
#	150
#	42038
#	62227
#	81412
#	97670
#	121647
#	157829
#	181325
#	202635
#	220613
#	225156
#	249801
#	283423
#	303872
#	330248
#
# Disc length: 4623 seconds
#
# Revision: 1
# Processed by: cddbd v1.4PL0 Copyright (c) Steve Scherf et al.
# Submitted via: audiograbber 1.81.02
#
DISCID=a9120d0f
DTITLE=Fantastic Plastic Mashin - Best trips
DYEAR=1900
DGENRE=
TTITLE0=There must an angel
TTITLE1=Beautiful days
TTITLE2=Dear Mr.Salesman
TTITLE3=Bossa for Jackie
TTITLE4=Philter
TTITLE5=Whistle song
TTITLE6=The girl nex green door
TTITLE7=Bachelor pad
TTITLE8=Black data
TTITLE9=One minute of love
TTITLE10=Steppin' out
TTITLE11=Todos os desejos
TTITLE12=Pura soudade
TTITLE13=Fantastic plastic world
TTITLE14=Bossa for Jackie (Summer review ep version)
EXTD=
EXTT0=
EXTT1=
EXTT2=
EXTT3=
EXTT4=
EXTT5=
EXTT6=
EXTT7=
EXTT8=
EXTT9=
EXTT10=
EXTT11=
EXTT12=
EXTT13=
EXTT14=
PLAYORDER=
